Coordinates
version=1
nRows=6
nColumns=34
inDegrees=yes

Units are S.I. units (second, meters, Newtons, ...)
If the header above contains a line with 'inDegrees', this indicates whether rotational values are in degrees (yes) or radians (no).

endheader
time	pelvis_tilt	pelvis_list	pelvis_rotation	pelvis_tx	pelvis_ty	pelvis_tz	hip_flexion_r	hip_adduction_r	hip_rotation_r	knee_angle_r	ankle_angle_r	subtalar_angle_r	mtp_angle_r	hip_flexion_l	hip_adduction_l	hip_rotation_l	knee_angle_l	ankle_angle_l	subtalar_angle_l	mtp_angle_l	lumbar_extension	lumbar_bending	lumbar_rotation	arm_flex_r	arm_add_r	arm_rot_r	elbow_flex_r	pro_sup_r	arm_flex_l	arm_add_l	arm_rot_l	elbow_flex_l	pro_sup_l
      5.85000000	     -4.30911968	      0.70992575	      5.03186469	     -0.03585074	      0.76739159	     -0.04484586	     37.46432837	    -12.07238663	     -6.12723523	     56.55952723	     20.86571324	    -13.82273757	      0.00000000	     37.84957576	    -10.46977776	     -8.22796492	     55.17709005	     14.24643848	    -18.51574518	      0.00000000	    -28.62440401	      0.67584808	      2.71158884	    122.22579645	      1.81750975	     73.86496591	    113.56794301	     95.27108759	    111.07192203	      3.81289486	     70.18203696	    107.32702222	     87.77661188
      5.86666670	     -4.67145272	      0.52165319	      4.89161904	     -0.03138141	      0.78086644	     -0.04503656	     35.32514738	    -11.44454763	     -6.67596401	     52.53449652	     19.45998168	    -13.93400165	      0.00000000	     35.62050878	    -10.07924415	     -8.40060829	     51.26309347	     13.14436116	    -17.95151708	      0.00000000	    -27.17701314	      0.71042559	      3.19499942	    122.01236442	      2.26642494	     72.83947526	    115.37406445	     94.92596010	    110.90794829	      4.57534945	     70.93415088	    108.16596133	     87.46361714
      5.88333330	     -5.05676981	      0.38469613	      4.79053859	     -0.02708834	      0.78637257	     -0.04485022	     33.46306543	    -10.88665989	     -7.10984918	     49.06339345	     18.50885709	    -13.58531090	      0.00000000	     33.69889941	     -9.76385760	     -8.59200630	     47.77181200	     12.08282289	    -17.44726319	      0.00000000	    -25.36162787	      0.82838549	      3.41493912	    121.89876878	      2.21773749	     72.79917554	    116.29763792	     94.83680139	    110.11812206	      4.32467545	     71.39733915	    108.59409562	     87.33903656
      5.90000000	     -5.25692009	      0.20619553	      4.81699333	     -0.02071562	      0.79359156	     -0.04510848	     31.44368316	    -10.32000014	     -7.52381804	     45.74883708	     17.54192508	    -13.44483927	      0.00000000	     31.61061624	     -9.49854079	     -8.72112933	     44.29747891	     10.94493570	    -16.99833513	      0.00000000	    -23.55365243	      1.16454981	      3.31933478	    121.69319593	      2.66742267	     72.66048844	    117.74782737	     94.78224823	    109.68009719	      4.65535036	     72.17100429	    108.37015339	     87.23081514
      5.91666670	     -5.55123606	      0.05373005	      5.14288792	     -0.01828731	      0.80154653	     -0.04515942	     29.66261322	     -9.79681565	     -7.78707467	     42.56800299	     16.64176371	    -13.52352751	      0.00000000	     29.96640417	     -9.09082376	     -8.64934228	     41.05989299	      9.36912521	    -17.23863033	      0.00000000	    -22.20015604	      1.01072832	      3.81846497	    122.03904986	      2.47415187	     71.35809409	    120.12195319	     94.82607521	    109.51395741	      6.74922861	     70.98114556	    112.38666942	     87.14649226
      5.93333330	     -5.71267801	     -0.08753173	      5.35891081	     -0.01387956	      0.80924290	     -0.04506852	     27.77482813	     -9.29589557	     -8.14284568	     39.35142338	     15.47586196	    -13.65298108	      0.00000000	     28.20567336	     -8.69222635	     -8.35792025	     37.84872610	      8.02113549	    -16.87987288	      0.00000000	    -20.84613660	      0.99015472	      4.22723018	    122.27451896	      2.66521735	     69.56128289	    122.45659205	     95.04864729	    109.01349752	      8.34091307	     69.97796327	    115.47859076	     87.26232275
